<svg width="29" height="29" viewBox="0 0 29 29" fill="none" xmlns="http://www.w3.org/2000/svg">
<g clip-path="url(#clip0_193_252)">
<path d="M25.8567 9.16128L26.3229 8.39188C26.3229 8.39188 26.7335 7.71128 26.7335 6.79733C26.7335 4.58336 24.621 4.64181 24.621 4.64181L20.0186 3.38892L17.5078 0.90625L14.2041 1.8057L13.1207 1.51072L12.2974 2.32498L7.54091 3.62002C7.54091 3.62002 5.71028 3.56972 5.71028 5.48825C5.71028 6.28031 6.06644 6.87028 6.06644 6.87028L6.67861 7.88075L6.14075 8.41181L3.48544 9.135C3.48544 9.135 1.37297 9.07655 1.37297 11.2905C1.37719 11.8063 1.49786 12.3145 1.72595 12.7772L0.90625 13.5879L1.33627 13.7582C1.34578 13.7813 1.34941 13.8072 1.36798 13.8257C2.19947 14.659 2.13105 15.7783 2.01233 16.3827L1.50981 16.8862L5.31652 18.7163L10.5447 27.3461C11.3825 28.6629 13.161 27.8391 13.161 27.8391L26.5957 21.3793L26.0932 20.8759C25.9745 20.2715 25.9061 19.1522 26.7375 18.3185C26.7561 18.2999 26.7597 18.2741 26.7693 18.2514L27.1993 18.0806L24.7012 15.6111L27.5695 14.2322L27.134 13.7958C27.0312 13.272 26.9718 12.3019 27.6927 11.5796C27.7086 11.5633 27.7113 11.5415 27.7199 11.5212L28.0938 11.373L25.8567 9.16128ZM23.2807 5.15792L22.7142 6.0542L21.2488 4.60511L23.2807 5.15792ZM17.7516 3.23713L19.8555 5.48598L12.248 8.23509L10.4513 5.44566L17.7516 3.23713ZM7.134 8.63294L12.3255 17.202L2.43509 13.2788L7.134 8.63294ZM4.97033 9.56955L4.36087 10.1722L4.11709 9.79838L4.97033 9.56955ZM3.04591 10.0381L3.61322 10.9112L2.38389 12.1265C2.28716 11.8583 2.23645 11.5756 2.23391 11.2905C2.23391 10.4631 2.64444 10.1482 3.04591 10.0381ZM2.33541 16.7774L2.3422 16.7511L13.7369 21.7387L2.43147 16.3492C2.44189 16.288 2.45005 16.2205 2.45866 16.1525L11.3095 19.8591L2.48947 15.7284C2.49172 15.5396 2.47869 15.351 2.4505 15.1643L10.6425 18.5378L2.34039 14.6813C2.2871 14.5027 2.21574 14.3301 2.12742 14.166L13.4025 18.9805L13.659 19.4037C14.1878 20.2347 15.1471 20.0811 15.6305 19.937C16.2989 20.2669 17.497 21.03 17.1902 22.1542C17.0284 22.7487 16.6727 23.0369 16.1032 23.0369C15.5263 23.0369 14.9504 22.7351 14.9445 22.731L2.33541 16.7774ZM13.6844 22.7401L12.7935 23.1089L12.0368 21.9476L13.6844 22.7401ZM10.2343 25.1783L6.73208 19.3969L10.213 21.0703L11.8592 23.6042C11.1954 23.8878 10.4536 24.5354 10.2343 25.1783ZM25.6555 19.6575C25.6273 19.8442 25.6143 20.0328 25.6165 20.2216L16.7964 24.3523L25.6473 20.6457C25.6559 20.7132 25.6636 20.7812 25.6745 20.8424L14.369 26.2323L25.7638 21.2448C25.7663 21.2535 25.7686 21.2622 25.7706 21.271L13.1615 27.2238C13.1556 27.2278 12.5806 27.5296 12.0028 27.5296C11.4328 27.5296 11.0775 27.241 10.9158 26.6469C10.4998 25.1212 12.8651 24.2562 12.9005 24.2431L14.9735 23.3586C15.196 23.4533 16.7833 24.0763 17.5613 22.8534L18.052 22.0441L25.979 18.6592C25.8907 18.8234 25.8192 18.996 25.7656 19.1744L17.4634 23.031L25.6555 19.6575ZM25.6709 17.772L18.9533 20.556L20.8175 17.4788L23.8838 16.0048L25.6709 17.772ZM26.7552 12.7392C26.7311 12.901 26.7198 13.0645 26.7212 13.2281L19.0779 16.8078L26.7484 13.5956C26.7561 13.654 26.7625 13.7134 26.772 13.7659L16.9736 18.4367L26.849 14.1144C26.8514 14.1218 26.8534 14.1294 26.8549 14.137L15.9269 19.2968C15.9219 19.3 15.423 19.5619 14.9228 19.5619C14.4284 19.5619 14.1207 19.3113 13.9807 18.7965C13.62 17.4743 15.67 16.7248 15.7008 16.7135L27.0353 11.8741C26.9588 12.0164 26.897 12.1661 26.8508 12.3209L19.6552 15.6632L26.7552 12.7392Z" fill="#003A78"/>
</g>
<defs>
<clipPath id="clip0_193_252">
<rect width="29" height="29" fill="white"/>
</clipPath>
</defs>
</svg>
