<svg width="29" height="29" viewBox="0 0 29 29" fill="none" xmlns="http://www.w3.org/2000/svg">
<path d="M27.7806 11.165L27.4326 10.817C27.6577 10.3492 27.7349 9.8239 27.6539 9.31111C27.5729 8.79832 27.3375 8.32241 26.9791 7.94681C26.7346 7.70346 26.4409 7.51508 26.1178 7.39422C25.7947 7.27337 25.4496 7.22283 25.1054 7.24598C24.7819 7.2649 24.4643 7.34043 24.1669 7.46911V1.61111H1.61133V27.3889H24.1669V14.355L26.656 11.8658L26.8687 12.0777C26.8965 12.1055 26.9186 12.1384 26.9336 12.1747C26.9486 12.211 26.9564 12.2499 26.9564 12.2892C26.9564 12.3284 26.9486 12.3673 26.9336 12.4036C26.9186 12.4399 26.8965 12.4729 26.8687 12.5006L24.9732 14.3969C24.8523 14.5177 24.7843 14.6816 24.7843 14.8526C24.7842 15.0235 24.852 15.1875 24.9728 15.3084C25.0937 15.4293 25.2576 15.4973 25.4285 15.4974C25.5994 15.4974 25.7634 15.4296 25.8843 15.3088L27.7806 13.4125C28.0782 13.1142 28.2454 12.7101 28.2454 12.2888C28.2454 11.8674 28.0782 11.4633 27.7806 11.165ZM6.44466 6.60556H19.3352V7.89445H6.44466V6.60556ZM6.44466 9.82778H19.3352V11.1167H6.44466V9.82778ZM6.44466 13.05H14.903V14.3389H6.44466V13.05ZM18.3604 24.0829H12.0739C11.3473 24.0829 10.6674 24.0144 10.3065 23.4191C9.93674 22.8109 10.3041 22.1044 10.5723 21.5873C10.6199 21.4963 10.5143 21.3835 10.3935 21.5083C10.0391 21.8724 9.47516 22.5282 9.02163 23.055C8.54233 23.6124 8.35222 23.8308 8.25072 23.9226C8.14333 24.0473 7.99748 24.1328 7.83616 24.1654C7.67484 24.1981 7.50723 24.1762 7.35977 24.103C7.22738 24.0266 7.12366 23.9089 7.06446 23.7679C7.00526 23.627 6.99383 23.4705 7.03191 23.3224C7.06574 23.1211 7.64091 20.88 8.16211 18.8653C7.46933 20.0954 5.27016 23.7792 5.16705 23.9524C5.09035 24.0809 4.96574 24.1737 4.82064 24.2103C4.67554 24.2469 4.52182 24.2244 4.39331 24.1477C4.26481 24.071 4.17203 23.9464 4.13539 23.8013C4.09876 23.6562 4.12127 23.5025 4.19797 23.374C4.22616 23.3281 6.98116 18.7114 7.32836 18.0412C7.44154 17.7733 7.65219 17.5584 7.91776 17.4398C8.18332 17.3212 8.48399 17.3079 8.75902 17.4024C9.00728 17.5033 9.20806 17.6946 9.32092 17.9376C9.43377 18.1807 9.45032 18.4575 9.36722 18.7123C9.07722 19.8304 8.78158 20.9775 8.55361 21.87C8.92174 21.4447 9.3068 21.0081 9.58472 20.7221C9.7986 20.465 10.0909 20.285 10.4168 20.2098C10.7427 20.1346 11.0842 20.1683 11.3892 20.3056C11.5786 20.4021 11.7304 20.5592 11.8203 20.7519C11.9103 20.9446 11.9332 21.1618 11.8854 21.369C11.8084 21.6256 11.7036 21.873 11.5728 22.1069C11.3577 22.5539 11.46 22.9543 12.0739 22.9543H18.3596C18.5092 22.9543 18.6526 23.0137 18.7584 23.1195C18.8641 23.2252 18.9235 23.3686 18.9235 23.5182C18.9235 23.6678 18.8641 23.8112 18.7584 23.9169C18.6526 24.0227 18.5092 24.0821 18.3596 24.0821L18.3604 24.0829ZM16.6841 20.0148L14.5864 20.5683C14.5559 20.5769 14.5236 20.5771 14.493 20.5689C14.4623 20.5607 14.4345 20.5443 14.4124 20.5215C14.3893 20.4997 14.3726 20.4719 14.3642 20.4412C14.3558 20.4105 14.3561 20.3781 14.3649 20.3475L14.8998 18.2539L20.2084 12.9453L21.9806 14.7175L16.6841 20.0148ZM25.9206 10.7775L22.8917 13.8064L21.1195 12.0342L24.1484 9.00531C24.4192 8.7268 24.7837 8.55861 25.1714 8.53325L25.2439 8.53084C25.396 8.52812 25.5472 8.55571 25.6885 8.612C25.8299 8.66829 25.9586 8.75215 26.0672 8.8587C26.3 9.13354 26.4152 9.48905 26.3877 9.84821C26.3603 10.2074 26.1925 10.5413 25.9206 10.7775Z" fill="#003A78"/>
</svg>
