<svg width="29" height="29" viewBox="0 0 29 29" fill="none" xmlns="http://www.w3.org/2000/svg">
<path fill-rule="evenodd" clip-rule="evenodd" d="M23.5625 7.85417C23.0818 7.85417 22.6208 8.04513 22.2809 8.38504C21.941 8.72495 21.75 9.18596 21.75 9.66667V10.875H25.375V9.66667C25.375 9.18596 25.184 8.72495 24.8441 8.38504C24.5042 8.04513 24.0432 7.85417 23.5625 7.85417ZM25.375 12.0833H21.75V22.0521L23.5625 24.7708L25.375 22.0521V12.0833ZM3.625 5.4375V23.5625C3.625 24.0432 3.81596 24.5042 4.15587 24.8441C4.49578 25.184 4.9568 25.375 5.4375 25.375H18.7292C19.2099 25.375 19.6709 25.184 20.0108 24.8441C20.3507 24.5042 20.5417 24.0432 20.5417 23.5625V5.4375C20.5417 4.9568 20.3507 4.49578 20.0108 4.15587C19.6709 3.81596 19.2099 3.625 18.7292 3.625H5.4375C4.9568 3.625 4.49578 3.81596 4.15587 4.15587C3.81596 4.49578 3.625 4.9568 3.625 5.4375ZM12.0833 9.0625C12.0833 8.90227 12.147 8.74859 12.2603 8.63529C12.3736 8.52199 12.5273 8.45833 12.6875 8.45833H17.5208C17.6811 8.45833 17.8347 8.52199 17.948 8.63529C18.0613 8.74859 18.125 8.90227 18.125 9.0625C18.125 9.22274 18.0613 9.37641 17.948 9.48971C17.8347 9.60301 17.6811 9.66667 17.5208 9.66667H12.6875C12.5273 9.66667 12.3736 9.60301 12.2603 9.48971C12.147 9.37641 12.0833 9.22274 12.0833 9.0625ZM12.6875 10.875C12.5273 10.875 12.3736 10.9387 12.2603 11.052C12.147 11.1653 12.0833 11.3189 12.0833 11.4792C12.0833 11.6394 12.147 11.7931 12.2603 11.9064C12.3736 12.0197 12.5273 12.0833 12.6875 12.0833H17.5208C17.6811 12.0833 17.8347 12.0197 17.948 11.9064C18.0613 11.7931 18.125 11.6394 18.125 11.4792C18.125 11.3189 18.0613 11.1653 17.948 11.052C17.8347 10.9387 17.6811 10.875 17.5208 10.875H12.6875ZM12.0833 16.9167C12.0833 16.7564 12.147 16.6028 12.2603 16.4895C12.3736 16.3762 12.5273 16.3125 12.6875 16.3125H17.5208C17.6811 16.3125 17.8347 16.3762 17.948 16.4895C18.0613 16.6028 18.125 16.7564 18.125 16.9167C18.125 17.0769 18.0613 17.2306 17.948 17.3439C17.8347 17.4572 17.6811 17.5208 17.5208 17.5208H12.6875C12.5273 17.5208 12.3736 17.4572 12.2603 17.3439C12.147 17.2306 12.0833 17.0769 12.0833 16.9167ZM12.6875 18.7292C12.5273 18.7292 12.3736 18.7928 12.2603 18.9061C12.147 19.0194 12.0833 19.1731 12.0833 19.3333C12.0833 19.4936 12.147 19.6472 12.2603 19.7605C12.3736 19.8738 12.5273 19.9375 12.6875 19.9375H17.5208C17.6811 19.9375 17.8347 19.8738 17.948 19.7605C18.0613 19.6472 18.125 19.4936 18.125 19.3333C18.125 19.1731 18.0613 19.0194 17.948 18.9061C17.8347 18.7928 17.6811 18.7292 17.5208 18.7292H12.6875ZM7.25 16.9167V18.7292H9.0625V16.9167H7.25ZM6.64583 15.7083H9.66667C9.8269 15.7083 9.98057 15.772 10.0939 15.8853C10.2072 15.9986 10.2708 16.1523 10.2708 16.3125V19.3333C10.2708 19.4936 10.2072 19.6472 10.0939 19.7605C9.98057 19.8738 9.8269 19.9375 9.66667 19.9375H6.64583C6.4856 19.9375 6.33193 19.8738 6.21862 19.7605C6.10532 19.6472 6.04167 19.4936 6.04167 19.3333V16.3125C6.04167 16.1523 6.10532 15.9986 6.21862 15.8853C6.33193 15.772 6.4856 15.7083 6.64583 15.7083ZM10.698 9.48965C10.808 9.3757 10.8689 9.22309 10.8676 9.06467C10.8662 8.90626 10.8026 8.75473 10.6906 8.64271C10.5786 8.5307 10.4271 8.46716 10.2687 8.46578C10.1102 8.4644 9.95763 8.5253 9.84369 8.63535L7.85417 10.6249L7.07298 9.84369C6.95903 9.73363 6.80642 9.67274 6.64801 9.67411C6.4896 9.67549 6.33806 9.73903 6.22605 9.85105C6.11403 9.96306 6.05049 10.1146 6.04911 10.273C6.04774 10.4314 6.10863 10.584 6.21869 10.698L7.85417 12.3335L10.698 9.48965Z" fill="#003A78"/>
</svg>
