<svg width="29" height="29" viewBox="0 0 29 29" fill="none" xmlns="http://www.w3.org/2000/svg">
<path d="M24.1665 20.5417C24.1665 20.8622 24.0392 21.1695 23.8126 21.3961C23.586 21.6227 23.2786 21.75 22.9582 21.75C22.6377 21.75 22.3304 21.6227 22.1037 21.3961C21.8771 21.1695 21.7498 20.8622 21.7498 20.5417V6.04171C21.7498 5.72124 21.6225 5.41389 21.3959 5.18729C21.1693 4.96068 20.862 4.83337 20.5415 4.83337H3.62484C3.30437 4.83337 2.99702 4.96068 2.77042 5.18729C2.54381 5.41389 2.4165 5.72124 2.4165 6.04171V21.75C2.4165 22.391 2.67112 23.0057 3.12433 23.4589C3.57754 23.9121 4.19223 24.1667 4.83317 24.1667H22.9582C24.9568 24.1667 26.5832 22.5403 26.5832 20.5417V8.45837H24.1665V20.5417ZM14.4998 8.45837H18.1248V10.875H14.4998V8.45837ZM14.4998 13.2917H18.1248V15.7084H14.4998V13.2917ZM6.0415 8.45837H12.0832V15.7084H6.0415V8.45837ZM6.0415 20.5417V18.125H18.1248V20.5417H6.0415Z" fill="#003A78"/>
</svg>
