<svg width="32" height="29" viewBox="0 0 32 29" fill="none" xmlns="http://www.w3.org/2000/svg">
<g clip-path="url(#clip0_193_266)">
<path d="M26.9615 20.8981C25.7409 19.2593 23.9981 18.0855 22.0207 17.5704L21.959 17.5571L20.5344 19.9617C20.5335 20.2818 20.4058 20.5886 20.1794 20.815C19.953 21.0414 19.6463 21.169 19.3261 21.17C18.6615 21.17 18.1178 20.6262 17.4834 19.0264V18.9877C17.4834 18.5872 17.3242 18.203 17.041 17.9197C16.7577 17.6365 16.3735 17.4773 15.973 17.4773C15.5724 17.4773 15.1882 17.6365 14.9049 17.9197C14.6217 18.203 14.4625 18.5872 14.4625 18.9877V19.0276V19.0252C13.7859 20.6262 13.2373 21.1688 12.5739 21.1688C12.2537 21.1678 11.947 21.0402 11.7206 20.8138C11.4942 20.5874 11.3665 20.2806 11.3656 19.9605L9.98567 17.551C7.99462 18.0575 6.23591 19.2279 5.00008 20.8691L4.98317 20.8921C4.49331 21.6932 4.22054 22.6082 4.19171 23.5468V23.5552C4.19775 23.7365 4.19171 23.948 4.19171 24.1594V26.5761C4.19171 27.217 4.44632 27.8317 4.89953 28.2849C5.35275 28.7381 5.96744 28.9927 6.60838 28.9927H25.3375C25.9785 28.9927 26.5932 28.7381 27.0464 28.2849C27.4996 27.8317 27.7542 27.217 27.7542 26.5761V24.1594C27.7542 23.9492 27.7482 23.7365 27.7542 23.5552C27.7238 22.6059 27.4464 21.681 26.9495 20.8715L26.9627 20.8957L26.9615 20.8981ZM9.628 6.39208C9.628 9.92041 11.8272 15.1042 15.9718 15.1042C20.0438 15.1042 22.3155 9.92041 22.3155 6.39208V6.31354C22.3155 5.48046 22.1514 4.65555 21.8326 3.88589C21.5138 3.11623 21.0465 2.4169 20.4575 1.82783C19.8684 1.23876 19.1691 0.77148 18.3994 0.452677C17.6297 0.133874 16.8048 -0.0302124 15.9718 -0.0302124C15.1387 -0.0302124 14.3138 0.133874 13.5441 0.452677C12.7744 0.77148 12.0751 1.23876 11.486 1.82783C10.897 2.4169 10.4297 3.11623 10.1109 3.88589C9.79209 4.65555 9.628 5.48046 9.628 6.31354V6.3957V6.39208ZM23.2024 8.47041C23.2024 10.7687 24.6355 14.1472 27.3349 14.1472C29.9872 14.1472 31.4674 10.7699 31.4674 8.47041V8.40758C31.4674 7.31125 31.0319 6.25983 30.2567 5.48461C29.4815 4.70939 28.43 4.27387 27.3337 4.27387C26.2374 4.27387 25.186 4.70939 24.4107 5.48461C23.6355 6.25983 23.2 7.31125 23.2 8.40758V8.47404V8.47041H23.2024ZM0.00241667 10.4037C0.00241667 12.702 1.4355 16.0805 4.13492 16.0805C6.78721 16.0805 8.26742 12.7032 8.26742 10.4037V10.3409C8.26742 9.24458 7.8319 8.19316 7.05668 7.41794C6.28146 6.64272 5.23004 6.2072 4.13371 6.2072C3.03738 6.2072 1.98596 6.64272 1.21074 7.41794C0.435514 8.19316 0 9.24458 0 10.3409L0 10.4074V10.4037H0.00241667Z" fill="#003A78"/>
</g>
<defs>
<clipPath id="clip0_193_266">
<rect width="31.4167" height="29" fill="white"/>
</clipPath>
</defs>
</svg>
