<svg width="29" height="29" viewBox="0 0 29 29" fill="none" xmlns="http://www.w3.org/2000/svg">
<g clip-path="url(#clip0_18_1811)">
<path d="M7.37833 12.2858C9.41833 16.295 12.705 19.5675 16.7142 21.6217L19.8308 18.505C20.2133 18.1225 20.78 17.995 21.2758 18.165C22.8625 18.6892 24.5767 18.9725 26.3333 18.9725C27.1125 18.9725 27.75 19.61 27.75 20.3892V25.3333C27.75 26.1125 27.1125 26.75 26.3333 26.75C13.0308 26.75 2.25 15.9692 2.25 2.66667C2.25 1.8875 2.8875 1.25 3.66667 1.25H8.625C9.40417 1.25 10.0417 1.8875 10.0417 2.66667C10.0417 4.4375 10.325 6.1375 10.8492 7.72417C11.005 8.22 10.8917 8.7725 10.495 9.16917L7.37833 12.2858Z" fill="#003A78"/>
</g>
<defs>
<clipPath id="clip0_18_1811">
<rect width="29" height="29" fill="white"/>
</clipPath>
</defs>
</svg>
