<svg width="23" height="23" viewBox="0 0 23 23" fill="none" xmlns="http://www.w3.org/2000/svg">
<path d="M0.625 10.2917H10.2917V0.625H0.625V10.2917ZM3.04167 3.04167H7.875V7.875H3.04167V3.04167ZM0.625 22.375H10.2917V12.7083H0.625V22.375ZM3.04167 15.125H7.875V19.9583H3.04167V15.125ZM12.7083 0.625V10.2917H22.375V0.625H12.7083ZM19.9583 7.875H15.125V3.04167H19.9583V7.875ZM12.7204 12.7083H15.1371V15.125H12.7204V12.7083ZM15.1371 15.125H17.5537V17.5417H15.1371V15.125ZM12.7204 17.5417H15.1371V19.9583H12.7204V17.5417ZM17.5537 17.5417H19.9704V19.9583H17.5537V17.5417ZM19.9704 19.9583H22.3871V22.375H19.9704V19.9583ZM15.1371 19.9583H17.5537V22.375H15.1371V19.9583ZM17.5537 12.7083H19.9704V15.125H17.5537V12.7083ZM19.9704 15.125H22.3871V17.5417H19.9704V15.125Z" fill="#003A78"/>
</svg>
