<svg width="29" height="29" viewBox="0 0 29 29" fill="none" xmlns="http://www.w3.org/2000/svg">
<path d="M13.2314 21.75L20.0585 14.9229L18.3064 13.1708L13.2012 18.276L10.6637 15.7385L8.94183 17.4604L13.2314 21.75ZM7.25016 26.5833C6.58558 26.5833 6.01686 26.3469 5.544 25.874C5.07113 25.4011 4.8343 24.832 4.8335 24.1666V4.83329C4.8335 4.16871 5.07033 3.59999 5.544 3.12713C6.01766 2.65426 6.58639 2.41743 7.25016 2.41663H16.9168L24.1668 9.66663V24.1666C24.1668 24.8312 23.9304 25.4003 23.4575 25.874C22.9847 26.3477 22.4156 26.5841 21.7502 26.5833H7.25016ZM15.7085 10.875H21.7502L15.7085 4.83329V10.875Z" fill="#003A78"/>
</svg>
