<svg width="29" height="29" viewBox="0 0 29 29" fill="none" xmlns="http://www.w3.org/2000/svg">
<path d="M19.3335 19.3333C19.3335 17.9981 15.5466 16.9167 10.8752 16.9167M19.3335 19.3333C19.3335 20.6685 15.5466 21.75 10.8752 21.75C6.20375 21.75 2.41683 20.6685 2.41683 19.3333M19.3335 19.3333V25.2989C19.3335 26.6752 15.5466 27.7917 10.8752 27.7917C6.20375 27.7917 2.41683 26.6764 2.41683 25.2989V19.3333M19.3335 19.3333C23.9542 19.3333 27.7918 18.1407 27.7918 16.9167V4.83332M10.8752 16.9167C6.20375 16.9167 2.41683 17.9981 2.41683 19.3333M10.8752 16.9167C5.53675 16.9167 1.2085 15.724 1.2085 14.5V8.45832M10.8752 6.04166C5.53675 6.04166 1.2085 7.12311 1.2085 8.45832M1.2085 8.45832C1.2085 9.79353 5.53675 10.875 10.8752 10.875C10.8752 12.099 14.8059 13.2917 19.4265 13.2917C24.046 13.2917 27.7918 12.099 27.7918 10.875M27.7918 4.83332C27.7918 3.49811 24.046 2.41666 19.4265 2.41666C14.8059 2.41666 11.0612 3.49811 11.0612 4.83332M27.7918 4.83332C27.7918 6.16853 24.046 7.24999 19.4265 7.24999C14.8071 7.24999 11.0612 6.16853 11.0612 4.83332M11.0612 4.83332V17.1172" stroke="#003A78" stroke-width="2"/>
</svg>
