<svg width="29" height="29" viewBox="0 0 29 29" fill="none" xmlns="http://www.w3.org/2000/svg">
<g clip-path="url(#clip0_193_264)">
<path d="M14.329 13.1849C13.588 19.1516 9.80353 20.213 9.80353 24.3615C9.80353 26.9222 11.9539 29 14.5001 29C17.0463 29 19.1952 26.9207 19.1952 24.3615C19.1952 20.213 15.4107 19.1516 14.6697 13.1849C14.6465 13.0065 14.3522 13.0065 14.329 13.1849ZM5.63043 0.134861C4.88948 6.10161 1.10498 7.16156 1.10498 11.3115C1.10498 13.8707 3.25388 15.95 5.80008 15.95C8.34628 15.95 10.4952 13.8707 10.4952 11.3115C10.4952 7.16301 6.71068 6.10161 5.96973 0.134861C5.94798 -0.0434889 5.65218 -0.0434889 5.63043 0.134861ZM23.0304 0.134861C22.2895 6.10161 18.505 7.16301 18.505 11.3115C18.505 13.8707 20.6539 15.95 23.2001 15.95C25.7463 15.95 27.8952 13.8707 27.8952 11.3115C27.8952 7.16301 24.1107 6.10161 23.3697 0.134861C23.3465 -0.0434889 23.0522 -0.0434889 23.0304 0.134861Z" fill="#003A78"/>
</g>
<defs>
<clipPath id="clip0_193_264">
<rect width="29" height="29" fill="white"/>
</clipPath>
</defs>
</svg>
