<svg width="29" height="29" viewBox="0 0 29 29" fill="none" xmlns="http://www.w3.org/2000/svg">
<path d="M14.4998 2.41669C7.83709 2.41669 2.4165 7.83727 2.4165 14.5C2.4165 21.1628 7.83709 26.5834 14.4998 26.5834C21.1626 26.5834 26.5832 21.1628 26.5832 14.5C26.5832 7.83727 21.1626 2.41669 14.4998 2.41669ZM4.83317 14.5C4.83317 13.4137 5.02167 12.3709 5.35396 11.3958L7.24984 13.2917L9.6665 15.7084V18.125L12.0832 20.5417L13.2915 21.75V24.0833C8.53188 23.4852 4.83317 19.4204 4.83317 14.5ZM22.1486 20.3882C21.3595 19.7526 20.1633 19.3334 19.3332 19.3334V18.125C19.3332 17.4841 19.0786 16.8694 18.6253 16.4162C18.1721 15.963 17.5574 15.7084 16.9165 15.7084H12.0832V12.0834C12.7241 12.0834 13.3388 11.8287 13.792 11.3755C14.2452 10.9223 14.4998 10.3076 14.4998 9.66669V8.45835H15.7082C16.3491 8.45835 16.9638 8.20374 17.417 7.75053C17.8702 7.29732 18.1248 6.68263 18.1248 6.04169V5.54506C21.6628 6.98177 24.1665 10.4521 24.1665 14.5C24.1663 16.6324 23.4563 18.704 22.1486 20.3882Z" fill="#003A78"/>
</svg>
