<svg width="90" height="50" viewBox="0 0 90 50" fill="none" xmlns="http://www.w3.org/2000/svg">
<path d="M0 8H90L60.5 25.8718L90 42H0V8Z" fill="#067AE4"/>
<path d="M14.112 31V26.424L14.704 27.992L9.776 19.8H12.528L16.304 26.088H14.72L18.512 19.8H21.056L16.128 27.992L16.704 26.424V31H14.112ZM24.2262 24.312H29.6182V26.328H24.2262V24.312ZM24.4182 28.92H30.5142V31H21.8422V19.8H30.3062V21.88H24.4182V28.92ZM32.372 31V19.8H34.516L41.124 27.864H40.084V19.8H42.644V31H40.516L33.892 22.936H34.932V31H32.372ZM45.0894 31V19.8H47.6814V31H45.0894ZM46.3854 18.808C45.9907 18.808 45.6654 18.68 45.4094 18.424C45.164 18.168 45.0414 17.8427 45.0414 17.448C45.0414 17.064 45.164 16.744 45.4094 16.488C45.6654 16.232 45.9907 16.104 46.3854 16.104C46.7694 16.104 47.0894 16.232 47.3454 16.488C47.6014 16.744 47.7294 17.064 47.7294 17.448C47.7294 17.8427 47.6014 18.168 47.3454 18.424C47.0894 18.68 46.7694 18.808 46.3854 18.808Z" fill="white"/>
</svg>
